<svg width="164" height="164" viewBox="0 0 164 164" fill="none" xmlns="http://www.w3.org/2000/svg">
<g clip-path="url(#clip0_1_3)">
<g clip-path="url(#clip1_1_3)">
<path d="M164 0H0V164H164V0Z" fill="#020617"/>
<path d="M63.7074 47.4095L62.9034 38.1753L74.4441 31.8065L75.2387 40.9321L63.7074 47.4095Z" fill="white"/>
<path d="M106.586 47.4095L105.782 38.1753L117.323 31.8065L118.117 40.9321L106.586 47.4095Z" fill="white"/>
<path d="M50.4652 31.8528L49.6608 41.0869L61.2015 47.4559L61.9965 38.3302L50.4652 31.8528Z" fill="white"/>
<path d="M93.3443 31.8528L92.5399 41.0869L104.081 47.4559L104.876 38.3302L93.3443 31.8528Z" fill="white"/>
<path d="M49.2041 48.2476L48.4001 57.482L59.9408 63.8505L60.7353 54.7252L49.2041 48.2476Z" fill="white"/>
<path d="M92.0827 48.2476L91.2787 57.482L102.819 63.8505L103.614 54.7252L92.0827 48.2476Z" fill="white"/>
<path d="M47.3124 65.2732L46.5084 74.5072L58.049 80.8762L58.8436 71.7504L47.3124 65.2732Z" fill="white"/>
<path d="M90.1914 65.2732L89.387 74.5072L100.928 80.8762L101.723 71.7504L90.1914 65.2732Z" fill="white"/>
<path d="M45.4206 82.2985L44.6166 91.5329L56.1573 97.9014L56.9519 88.7761L45.4206 82.2985Z" fill="white"/>
<path d="M88.2997 82.2985L87.4952 91.5329L99.0359 97.9014L99.8309 88.7761L88.2997 82.2985Z" fill="white"/>
<path d="M44.1594 99.3237L43.3554 108.558L54.8961 114.927L55.6907 105.801L44.1594 99.3237Z" fill="white"/>
<path d="M87.0385 99.3237L86.2345 108.558L97.7752 114.927L98.5698 105.801L87.0385 99.3237Z" fill="white"/>
<path d="M42.2677 116.349L41.4637 125.584L53.0044 131.952L53.799 122.827L42.2677 116.349Z" fill="white"/>
<path d="M85.1468 116.349L84.3423 125.584L95.883 131.952L96.678 122.827L85.1468 116.349Z" fill="white"/>
<path d="M65.5992 63.8042L64.7948 54.5702L75.8041 48.2476L76.5987 57.3734L65.5992 63.8042Z" fill="white"/>
<path d="M108.478 63.8042L107.674 54.5702L118.683 48.2476L119.478 57.3734L108.478 63.8042Z" fill="white"/>
<path d="M66.8603 80.8823L66.0559 71.6479L77.6659 65.2732L78.4609 74.3986L66.8603 80.8823Z" fill="white"/>
<path d="M109.739 80.8823L108.935 71.6479L120.545 65.2732L121.339 74.3986L109.739 80.8823Z" fill="white"/>
<path d="M68.1211 97.9076L67.3171 88.6732L78.927 82.2985L79.7216 91.4243L68.1211 97.9076Z" fill="white"/>
<path d="M111 97.9076L110.196 88.6732L121.806 82.2985L122.601 91.4243L111 97.9076Z" fill="white"/>
<path d="M70.0132 114.933L69.2088 105.699L80.8188 99.3241L81.6138 108.45L70.0132 114.933Z" fill="white"/>
<path d="M113.398 114.889L112.594 105.655L123.698 99.3241L124.492 108.45L113.398 114.889Z" fill="white"/>
<path d="M71.9046 131.959L71.1006 122.724L82.7105 116.349L83.5051 125.475L71.9046 131.959Z" fill="white"/>
<path d="M114.784 131.959L113.979 122.724L125.59 116.349L126.384 125.475L114.784 131.959Z" fill="white"/>
</g>
</g>
<defs>
<clipPath id="clip0_1_3">
<rect width="164" height="164" fill="white"/>
</clipPath>
<clipPath id="clip1_1_3">
<rect width="164" height="164" fill="white"/>
</clipPath>
</defs>
</svg>
