<svg width="40" height="40" viewBox="0 0 40 40" fill="none" xmlns="http://www.w3.org/2000/svg">
<rect width="40" height="40" fill="#121826"/>
<path d="M15.5384 11.5633L15.3423 9.31104L18.1571 7.75769L18.3509 9.98344L15.5384 11.5633Z" fill="#EFF1F3"/>
<path d="M25.9966 11.5633L25.8005 9.31104L28.6153 7.75769L28.8091 9.98344L25.9966 11.5633Z" fill="#EFF1F3"/>
<path d="M12.3086 7.76898L12.1124 10.0212L14.9272 11.5746L15.1211 9.34883L12.3086 7.76898Z" fill="#EFF1F3"/>
<path d="M22.7669 7.76898L22.5707 10.0212L25.3855 11.5746L25.5794 9.34883L22.7669 7.76898Z" fill="#EFF1F3"/>
<path d="M12.001 11.7677L11.8049 14.02L14.6197 15.5733L14.8135 13.3476L12.001 11.7677Z" fill="#EFF1F3"/>
<path d="M22.4592 11.7677L22.2631 14.02L25.0779 15.5733L25.2717 13.3476L22.4592 11.7677Z" fill="#EFF1F3"/>
<path d="M11.5396 15.9203L11.3435 18.1725L14.1583 19.7259L14.3521 17.5001L11.5396 15.9203Z" fill="#EFF1F3"/>
<path d="M21.9979 15.9203L21.8017 18.1725L24.6165 19.7259L24.8104 17.5001L21.9979 15.9203Z" fill="#EFF1F3"/>
<path d="M11.0782 20.0728L10.8821 22.3251L13.6969 23.8784L13.8907 21.6527L11.0782 20.0728Z" fill="#EFF1F3"/>
<path d="M21.5365 20.0728L21.3403 22.3251L24.1551 23.8784L24.349 21.6527L21.5365 20.0728Z" fill="#EFF1F3"/>
<path d="M10.7706 24.2253L10.5745 26.4776L13.3893 28.0309L13.5831 25.8052L10.7706 24.2253Z" fill="#EFF1F3"/>
<path d="M21.2289 24.2253L21.0328 26.4776L23.8476 28.0309L24.0414 25.8052L21.2289 24.2253Z" fill="#EFF1F3"/>
<path d="M10.3092 28.3779L10.1131 30.6302L12.9279 32.1835L13.1217 29.9578L10.3092 28.3779Z" fill="#EFF1F3"/>
<path d="M20.7675 28.3779L20.5713 30.6302L23.3861 32.1835L23.58 29.9578L20.7675 28.3779Z" fill="#EFF1F3"/>
<path d="M15.9998 15.562L15.8036 13.3098L18.4888 11.7677L18.6826 13.9935L15.9998 15.562Z" fill="#EFF1F3"/>
<path d="M26.458 15.562L26.2619 13.3098L28.9471 11.7677L29.1409 13.9935L26.458 15.562Z" fill="#EFF1F3"/>
<path d="M16.3074 19.7274L16.1112 17.4751L18.9429 15.9203L19.1368 18.146L16.3074 19.7274Z" fill="#EFF1F3"/>
<path d="M26.7656 19.7274L26.5695 17.4751L29.4012 15.9203L29.595 18.146L26.7656 19.7274Z" fill="#EFF1F3"/>
<path d="M16.6149 23.8799L16.4188 21.6276L19.2505 20.0728L19.4443 22.2986L16.6149 23.8799Z" fill="#EFF1F3"/>
<path d="M27.0732 23.8799L26.8771 21.6276L29.7088 20.0728L29.9026 22.2986L27.0732 23.8799Z" fill="#EFF1F3"/>
<path d="M17.0764 28.0324L16.8802 25.7802L19.7119 24.2254L19.9058 26.4511L17.0764 28.0324Z" fill="#EFF1F3"/>
<path d="M27.658 28.0217L27.4619 25.7694L30.1702 24.2254L30.364 26.4511L27.658 28.0217Z" fill="#EFF1F3"/>
<path d="M17.5377 32.185L17.3416 29.9327L20.1733 28.3779L20.3671 30.6037L17.5377 32.185Z" fill="#EFF1F3"/>
<path d="M27.996 32.185L27.7998 29.9327L30.6316 28.3779L30.8254 30.6037L27.996 32.185Z" fill="#EFF1F3"/>
</svg>
